<svg width="1601" height="1602" viewBox="0 0 1601 1602" fill="none" xmlns="http://www.w3.org/2000/svg">
<line y1="0.5" x2="1600" y2="0.5" stroke="#EEEEEE"/>
<line y1="600.5" x2="1600" y2="600.5" stroke="#EEEEEE"/>
<line y1="200.5" x2="1600" y2="200.5" stroke="#EEEEEE"/>
<line y1="800.5" x2="1600" y2="800.5" stroke="#EEEEEE"/>
<line y1="1250.5" x2="1600" y2="1250.5" stroke="#EEEEEE"/>
<line y1="400.5" x2="1600" y2="400.5" stroke="#EEEEEE"/>
<line y1="1000.5" x2="1600" y2="1000.5" stroke="#EEEEEE"/>
<line y1="1450.5" x2="1600" y2="1450.5" stroke="#EEEEEE"/>
<line y1="100.5" x2="1600" y2="100.5" stroke="#EEEEEE"/>
<line y1="700.5" x2="1600" y2="700.5" stroke="#EEEEEE"/>
<line y1="1150.5" x2="1600" y2="1150.5" stroke="#EEEEEE"/>
<line y1="300.5" x2="1600" y2="300.5" stroke="#EEEEEE"/>
<line y1="900.5" x2="1600" y2="900.5" stroke="#EEEEEE"/>
<line y1="1350.5" x2="1600" y2="1350.5" stroke="#EEEEEE"/>
<line y1="500.5" x2="1600" y2="500.5" stroke="#EEEEEE"/>
<line y1="1100.5" x2="1600" y2="1100.5" stroke="#EEEEEE"/>
<line y1="1550.5" x2="1600" y2="1550.5" stroke="#EEEEEE"/>
<line y1="50.5" x2="1600" y2="50.5" stroke="#EEEEEE"/>
<line y1="650.5" x2="1600" y2="650.5" stroke="#EEEEEE"/>
<line y1="1100.5" x2="1600" y2="1100.5" stroke="#EEEEEE"/>
<line y1="250.5" x2="1600" y2="250.5" stroke="#EEEEEE"/>
<line y1="850.5" x2="1600" y2="850.5" stroke="#EEEEEE"/>
<line y1="1300.5" x2="1600" y2="1300.5" stroke="#EEEEEE"/>
<line y1="450.5" x2="1600" y2="450.5" stroke="#EEEEEE"/>
<line y1="1050.5" x2="1600" y2="1050.5" stroke="#EEEEEE"/>
<line y1="1500.5" x2="1600" y2="1500.5" stroke="#EEEEEE"/>
<line y1="150.5" x2="1600" y2="150.5" stroke="#EEEEEE"/>
<line y1="750.5" x2="1600" y2="750.5" stroke="#EEEEEE"/>
<line y1="1200.5" x2="1600" y2="1200.5" stroke="#EEEEEE"/>
<line y1="350.5" x2="1600" y2="350.5" stroke="#EEEEEE"/>
<line y1="950.5" x2="1600" y2="950.5" stroke="#EEEEEE"/>
<line y1="1400.5" x2="1600" y2="1400.5" stroke="#EEEEEE"/>
<line y1="550.5" x2="1600" y2="550.5" stroke="#EEEEEE"/>
<line y1="1150.5" x2="1600" y2="1150.5" stroke="#EEEEEE"/>
<line y1="1600.5" x2="1600" y2="1600.5" stroke="#EEEEEE"/>
<line x1="0.5" y1="2.18557e-08" x2="0.49993" y2="1601" stroke="#DEDEDE"/>
<line x1="100.5" y1="2.18557e-08" x2="100.5" y2="1601" stroke="#DEDEDE"/>
<line x1="200.5" y1="2.18557e-08" x2="200.5" y2="1601" stroke="#DEDEDE"/>
<line x1="300.5" y1="2.18557e-08" x2="300.5" y2="1601" stroke="#DEDEDE"/>
<line x1="400.5" y1="2.18557e-08" x2="400.5" y2="1601" stroke="#DEDEDE"/>
<line x1="500.5" y1="2.18557e-08" x2="500.5" y2="1601" stroke="#DEDEDE"/>
<line x1="600.5" y1="2.18557e-08" x2="600.5" y2="1601" stroke="#DEDEDE"/>
<line x1="700.5" y1="2.18557e-08" x2="700.5" y2="1601" stroke="#DEDEDE"/>
<line x1="800.5" y1="2.18557e-08" x2="800.5" y2="1601" stroke="#DEDEDE"/>
<line x1="900.5" y1="2.18557e-08" x2="900.5" y2="1601" stroke="#DEDEDE"/>
<line x1="1000.5" y1="2.18557e-08" x2="1000.5" y2="1601" stroke="#DEDEDE"/>
<line x1="1100.5" y1="2.18557e-08" x2="1100.5" y2="1601" stroke="#DEDEDE"/>
<line x1="1200.5" y1="2.18557e-08" x2="1200.5" y2="1601" stroke="#DEDEDE"/>
<line x1="1300.5" y1="2.18557e-08" x2="1300.5" y2="1601" stroke="#DEDEDE"/>
<line x1="1400.5" y1="2.18557e-08" x2="1400.5" y2="1601" stroke="#DEDEDE"/>
<line x1="1500.5" y1="2.18557e-08" x2="1500.5" y2="1601" stroke="#DEDEDE"/>
<line x1="50.5001" y1="1" x2="50.5001" y2="1602" stroke="#DEDEDE"/>
<line x1="150.5" y1="1" x2="150.5" y2="1602" stroke="#DEDEDE"/>
<line x1="250.5" y1="1" x2="250.5" y2="1602" stroke="#DEDEDE"/>
<line x1="350.5" y1="1" x2="350.5" y2="1602" stroke="#DEDEDE"/>
<line x1="450.5" y1="1" x2="450.5" y2="1602" stroke="#DEDEDE"/>
<line x1="550.5" y1="1" x2="550.5" y2="1602" stroke="#DEDEDE"/>
<line x1="650.5" y1="1" x2="650.5" y2="1602" stroke="#DEDEDE"/>
<line x1="750.5" y1="1" x2="750.5" y2="1602" stroke="#DEDEDE"/>
<line x1="850.5" y1="1" x2="850.5" y2="1602" stroke="#DEDEDE"/>
<line x1="950.5" y1="1" x2="950.5" y2="1602" stroke="#DEDEDE"/>
<line x1="1050.5" y1="1" x2="1050.5" y2="1602" stroke="#DEDEDE"/>
<line x1="1150.5" y1="1" x2="1150.5" y2="1602" stroke="#DEDEDE"/>
<line x1="1250.5" y1="1" x2="1250.5" y2="1602" stroke="#DEDEDE"/>
<line x1="1350.5" y1="1" x2="1350.5" y2="1602" stroke="#DEDEDE"/>
<line x1="1450.5" y1="1" x2="1450.5" y2="1602" stroke="#DEDEDE"/>
<line x1="1550.5" y1="1" x2="1550.5" y2="1602" stroke="#DEDEDE"/>
<line x1="1600.5" y1="1" x2="1600.5" y2="1602" stroke="#DEDEDE"/>
</svg>
