<svg width="103" height="129" viewBox="0 0 103 129" fill="none" xmlns="http://www.w3.org/2000/svg">
<path d="M70 35.5C88.4292 35.5 106.923 17.672 81.792 7.9849C42.81 -7.04146 1.37388 14.443 3.04917 38.6608C3.96811 51.945 20.8346 60.8345 43.2584 75.7948C65.0382 90.3254 71.7399 95.169 71.7399 106.471C71.7399 116.158 65.0383 127.459 43.2584 125.845C21.4784 124.23 13.4295 112.993 13.4295 103.306C13.4295 79.0882 100.5 51.5 100.5 51.5" stroke="#6919FF" stroke-width="5"/>
<path d="M72.5 35.5C72.5 36.8807 71.25 38 70 38C68.6193 38 67.5 36.8807 67.5 35.5C67.5 34.1193 68.6193 33 70 33C71.3807 33 72.5 34.1193 72.5 35.5Z" fill="#6919FF"/>
<circle cx="100.5" cy="51.5" r="1.5" fill="#6919FF" stroke="#6919FF" stroke-width="2"/>
</svg>
